<?xml version="1.0" encoding="utf-8"?>
<!-- Uploaded to: SVG Repo, www.svgrepo.com, Generator: SVG Repo Mixer Tools -->
<svg width="800px" height="800px" viewBox="0 -2 32 32" xmlns="http://www.w3.org/2000/svg">
  <g id="Lager_37" data-name="Lager 37" transform="translate(0 -2)">
    <path id="Path_44" data-name="Path 44" d="M26.06,2h-.12A5.939,5.939,0,0,0,20,7.94v.12a5.936,5.936,0,0,0,4,5.609V20a2,2,0,0,1-2,2h-.331a5.936,5.936,0,0,0-5.609-4h-.12a5.936,5.936,0,0,0-5.609,4H10a2,2,0,0,1-2-2V13.669A5.936,5.936,0,0,0,12,8.06V7.94A5.939,5.939,0,0,0,6.06,2H5.94A5.939,5.939,0,0,0,0,7.94v.12a5.936,5.936,0,0,0,4,5.609V22.04A3.96,3.96,0,0,0,7.96,26h2.371a5.936,5.936,0,0,0,5.609,4h.12a5.936,5.936,0,0,0,5.609-4H24.04A3.96,3.96,0,0,0,28,22.04V13.669A5.936,5.936,0,0,0,32,8.06V7.94A5.939,5.939,0,0,0,26.06,2ZM6,10A2,2,0,1,1,8,8,2,2,0,0,1,6,10ZM16,26a2,2,0,1,1,2-2A2,2,0,0,1,16,26ZM26,10a2,2,0,1,1,2-2A2,2,0,0,1,26,10Z" fill="#100a0b"/>
  </g>
</svg>